<svg xmlns:dc="http://purl.org/dc/elements/1.1/" xmlns:cc="http://creativecommons.org/ns#" xmlns:rdf="http://www.w3.org/1999/02/22-rdf-syntax-ns#" xmlns:svg="http://www.w3.org/2000/svg" xmlns="http://www.w3.org/2000/svg" xmlns:sodipodi="http://sodipodi.sourceforge.net/DTD/sodipodi-0.dtd" xmlns:inkscape="http://www.inkscape.org/namespaces/inkscape" viewBox="0 0 6.3499999 7.93750025" version="1.1" x="0px" y="0px"><g transform="translate(0,-290.64999)"><path style="color:#000000;font-style:normal;font-variant:normal;font-weight:normal;font-stretch:normal;font-size:medium;line-height:normal;font-family:sans-serif;font-variant-ligatures:normal;font-variant-position:normal;font-variant-caps:normal;font-variant-numeric:normal;font-variant-alternates:normal;font-feature-settings:normal;text-indent:0;text-align:start;text-decoration:none;text-decoration-line:none;text-decoration-style:solid;text-decoration-color:#000000;letter-spacing:normal;word-spacing:normal;text-transform:none;writing-mode:lr-tb;direction:ltr;text-orientation:mixed;dominant-baseline:auto;baseline-shift:baseline;text-anchor:start;white-space:normal;shape-padding:0;clip-rule:nonzero;display:inline;overflow:visible;visibility:visible;opacity:1;isolation:auto;mix-blend-mode:normal;color-interpolation:sRGB;color-interpolation-filters:linearRGB;solid-color:#000000;solid-opacity:1;vector-effect:none;fill:#000000;fill-opacity:1;fill-rule:nonzero;stroke:none;stroke-width:0.5291667;stroke-linecap:round;stroke-linejoin:round;stroke-miterlimit:4;stroke-dasharray:none;stroke-dashoffset:0;stroke-opacity:1;paint-order:stroke fill markers;color-rendering:auto;image-rendering:auto;shape-rendering:auto;text-rendering:auto;enable-background:accumulate" d="m 3.0413311,290.90153 c -0.9238121,0 -1.679484,0.75619 -1.679484,1.68 0,0.56487 0.2833698,1.0651 0.7141683,1.36943 -1.0028145,0.40202 -1.71410732,1.38282 -1.71410732,2.52697 -0.008006,0.3607 0.53717271,0.3607 0.52916671,0 0,-1.21445 0.97920961,-2.19315 2.19366461,-2.19315 0.42393,0 0.8174414,0.12085 1.1523843,0.32815 0.3011011,0.18466 0.5780871,-0.26699 0.2769859,-0.45165 -0.1508021,-0.0933 -0.3142096,-0.16605 -0.4826579,-0.22893 0.4158538,-0.30589 0.6878132,-0.79718 0.6878132,-1.35082 0,-0.92381 -0.7541207,-1.68 -1.6779338,-1.68 z m 0,0.52968 c 0.63783,0 1.1487671,0.51249 1.1487671,1.15032 0,0.63783 -0.5109371,1.14825 -1.1487671,1.14825 -0.637829,0 -1.1503173,-0.51042 -1.1503173,-1.14825 0,-0.63783 0.5124883,-1.15032 1.1503173,-1.15032 z m 1.6231569,4.50205 v 0.52917 c 0.00766,0.34503 0.5215083,0.34503 0.5291666,0 v -0.52917 H 5.723338 c 0.3531217,0 0.3531217,-0.52968 0,-0.52968 H 5.1936546 v -0.52917 c 0.00172,-0.14834 -0.118818,-0.26913 -0.2671672,-0.26768 -0.1463263,10e-4 -0.2637068,0.12136 -0.2619994,0.26768 v 0.52917 H 4.1226607 c -0.3657825,0.0169 -0.3404611,0.54656 0.01266,0.52968 z"/></g><text x="0" y="21.3500002" fill="#000000" font-size="5px" font-weight="bold" font-family="'Helvetica Neue', Helvetica, Arial-Unicode, Arial, Sans-serif">Created by Handicon</text><text x="0" y="26.3500002" fill="#000000" font-size="5px" font-weight="bold" font-family="'Helvetica Neue', Helvetica, Arial-Unicode, Arial, Sans-serif">from the Noun Project</text></svg>